<?xml version="1.0" encoding="utf-8"?>
<svg id="master-artboard" viewBox="0 0 200 200" version="1.1" xmlns="http://www.w3.org/2000/svg" x="0px" y="0px" style="enable-background:new 0 0 1400 980;" width="200px" height="200px"><defs><linearGradient id="gradient-0" gradientUnits="userSpaceOnUse" x1="652" y1="46" x2="652" y2="146">
                <stop offset="0" style="stop-color: #333333"/>
                <stop offset="1" style="stop-color: #000000"/>
              </linearGradient></defs><rect id="ee-background" x="0" y="0" width="200" height="200" style="fill: white; fill-opacity: 0; pointer-events: none;"/><g transform="matrix(1.6340103149414062, 0, 0, 1.6340103149414062, -962.4423675537109, -53.13649368286133)"><g id="g-5" transform="matrix(1, 0, 0, 1, 0, 0)">
	<g id="g-6">
		<path class="st0" d="M652,46c27.6,0,50,22.4,50,50s-22.4,50-50,50s-50-22.4-50-50S624.4,46,652,46z" style="fill: rgb(38, 114, 255);"/>
	</g>
</g></g><path d="M 181.9479522705078 277.9999694824219 L 181.9479522705078 255.89996337890625 L 184.51795959472656 255.89996337890625 L 184.51795959472656 275.66998291015625 L 194.25796508789062 275.66998291015625 L 194.25796508789062 277.9999694824219 L 181.9479522705078 277.9999694824219 ZM 207.7821044921875 277.9999694824219 L 200.2821044921875 258.40997314453125 L 200.16209411621094 258.40997314453125 C 200.30209350585938 259.96331787109375 200.37210083007812 261.8099670410156 200.37210083007812 263.9499816894531 L 200.37210083007812 277.9999694824219 L 198.00209045410156 277.9999694824219 L 198.00209045410156 255.89996337890625 L 201.87210083007812 255.89996337890625 L 208.86209106445312 274.1299743652344 L 208.9821014404297 274.1299743652344 L 216.04209899902344 255.89996337890625 L 219.88209533691406 255.89996337890625 L 219.88209533691406 277.9999694824219 L 217.31210327148438 277.9999694824219 L 217.31210327148438 263.7599792480469 C 217.31210327148438 262.13330078125 217.38209533691406 260.3599853515625 217.5220947265625 258.4399719238281 L 217.402099609375 258.4399719238281 L 209.8520965576172 277.9999694824219 L 207.7821044921875 277.9999694824219 Z" transform="matrix(1.5611178874969482, 0, 0, 1.5611178874969482, -212.4611053466797, -300.47613525390625)" style="fill: rgb(51, 51, 51); white-space: pre; color: rgb(51, 51, 51);"/><g transform="matrix(0.6697400808334351, 0, 0, 0.6697400808334351, -551.1015472412109, -338.2065734863281)"><g transform="matrix(1, 0, 0, 1, 0, 0)"><g transform="matrix(1, 0, 0, 1, 1.1368683772161603e-13, 0)">
		<g>
			<path class="st20" d="M976.6,636.1l-45.4-2.4l-8,6.3c0,0,41.9,8,53.4,8c0,0,0,0,0,0L976.6,636.1L976.6,636.1z" style="fill: rgb(255, 196, 32);"/>
			<path class="st22" d="M1022,633.7l-45.4,2.4v11.9c11.5,0,53.4-8,53.4-8L1022,633.7z" style="fill: rgb(252, 160, 13);"/>
		</g>
		<path class="st21" d="M976.5,555.3c0,0-4.9,26.9-16,32.5c0.3,0.2,0.7,0.3,1,0.5c0,0,0,0,0,0c0,0,0,0,0,0c2.5,1.4,8.9,5.5,11.5,12&#10;&#9;&#9;&#9;c0.6,2,1.3,5.6,0.7,9.3c-0.4,1.8-1.2,3.7-2.3,5.8c-1.3,1.7-3.1,3.1-5.6,4.1c-11.9,4.4-17.6-5-17.6-5c0,0,0,0,0,0.1&#10;&#9;&#9;&#9;c-4.2-7.1-0.6-17.9,1-21.8c0,0,0,0,0-0.1c0,0,0,0,0,0c0.2-0.4,0.4-0.9,0.6-1.3c-14.3,6.3-29.8-0.2-29.8-0.2l18.8,38.6l37.9,2.5&#10;&#9;&#9;&#9;L976.5,555.3C976.5,555.3,976.5,555.3,976.5,555.3z" style="fill: rgb(254, 241, 66);"/>
		<path class="st20" d="M976.6,555.3c0,0,4.9,26.9,16,32.5c-0.3,0.2-0.7,0.3-1,0.5c0,0,0,0,0,0c0,0,0,0,0,0&#10;&#9;&#9;&#9;c-2.5,1.4-8.9,5.5-11.5,12c-0.6,2-1.3,5.6-0.7,9.3c0.4,1.8,1.2,3.7,2.3,5.8c1.3,1.7,3.1,3.1,5.6,4.1c11.9,4.4,17.6-5,17.6-5&#10;&#9;&#9;&#9;c0,0,0,0,0,0.1c4.2-7.1,0.6-17.9-1-21.8c0,0,0,0,0-0.1c0,0,0,0,0,0c-0.2-0.4-0.4-0.9-0.6-1.3c14.3,6.3,29.8-0.2,29.8-0.2&#10;&#9;&#9;&#9;l-18.8,38.6l-37.9,2.5L976.6,555.3C976.6,555.3,976.6,555.3,976.6,555.3z" style="fill: rgb(255, 196, 32);"/>
	</g></g></g></svg>